<svg xmlns="http://www.w3.org/2000/svg" width="409" height="819" viewBox="0 0 409 819"><g transform="translate(-223 -1837)"><g transform="translate(223 1837)" fill="#fff" stroke="#707070" stroke-width="1"><rect width="409" height="819" rx="26" stroke="none"/><rect x="0.5" y="0.5" width="408" height="818" rx="25.5" fill="none"/></g><g transform="translate(223 1837)"><path d="M451.734,405.395c-52.9,0-98.426-38.1-108.745-91.009S360.435,208.51,409.3,187.868s105.233-3.207,134.62,41.644,23.614,104.625-13.789,142.767A109.082,109.082,0,0,1,451.734,405.395Zm0-225.265c-60.667,0-110.023,50.332-110.023,112.2s49.357,112.2,110.023,112.2,110.023-50.332,110.023-112.2S512.4,180.13,451.734,180.13Z" transform="translate(-246.758 -149.307)" fill="#ccc"/><rect width="133.36" height="99.257" transform="translate(254.128 88.624) rotate(90)" fill="#2f2e41"/><rect width="133.36" height="52.937" transform="translate(137.82 125.146)" fill="#3f3d56"/><rect width="133.36" height="52.937" transform="translate(137.82 163.981)" fill="#3f3d56"/><rect width="133.36" height="52.937" transform="translate(137.82 202.642)" fill="#3f3d56"/><rect width="133.36" height="8.144" transform="translate(137.82 149.13)" fill="#6c63ff"/><rect width="133.36" height="8.144" transform="translate(137.82 190.525)" fill="#6c63ff"/><rect width="133.36" height="8.144" transform="translate(137.82 225.088)" fill="#6c63ff"/><circle cx="3.054" cy="3.054" r="3.054" transform="translate(238.24 136.939)" fill="#6c63ff"/><circle cx="3.054" cy="3.054" r="3.054" transform="translate(247.898 136.939)" fill="#6c63ff"/><circle cx="3.054" cy="3.054" r="3.054" transform="translate(257.556 136.939)" fill="#6c63ff"/><circle cx="3.054" cy="3.054" r="3.054" transform="translate(238.24 177.72)" fill="#6c63ff"/><circle cx="3.054" cy="3.054" r="3.054" transform="translate(247.898 177.72)" fill="#6c63ff"/><circle cx="3.054" cy="3.054" r="3.054" transform="translate(257.556 177.72)" fill="#6c63ff"/><circle cx="3.054" cy="3.054" r="3.054" transform="translate(238.24 205.187)" fill="#6c63ff"/><circle cx="3.054" cy="3.054" r="3.054" transform="translate(247.898 205.187)" fill="#6c63ff"/><circle cx="3.054" cy="3.054" r="3.054" transform="translate(257.556 205.187)" fill="#6c63ff"/><rect width="409" height="1.018" transform="translate(0 255.07)" fill="#3f3d56"/><path d="M347.98,358.457v94.672a7.47,7.47,0,0,1-7.467,7.468H303.721a7.471,7.471,0,0,1-7.471-7.469V358.457a7.47,7.47,0,0,1,7.471-7.468h4.463a3.552,3.552,0,0,0,3.286,4.89h20.975a3.552,3.552,0,0,0,3.286-4.89h4.781a7.47,7.47,0,0,1,7.468,7.467Z" transform="translate(-232.53 -275.19)" fill="#e6e6e6"/><rect width="46.829" height="65.153" transform="translate(66.003 95.633)" fill="#fff"/><rect width="18.691" height="1.068" transform="translate(78.488 136.712)" fill="#e6e6e6"/><rect width="28.92" height="1.068" transform="translate(78.262 139.484)" fill="#6c63ff"/><rect width="22.696" height="1.068" transform="translate(78.391 142.096)" fill="#e6e6e6"/><rect width="13.35" height="1.068" transform="translate(78.577 144.708)" fill="#e6e6e6"/><rect width="20.026" height="1.068" transform="translate(78.445 147.32)" fill="#e6e6e6"/><rect width="2.136" height="2.136" transform="translate(78.659 136.327)" fill="#e6e6e6"/><rect width="2.136" height="2.136" transform="translate(78.659 138.935)" fill="#6c63ff"/><rect width="2.136" height="2.136" transform="translate(78.659 141.544)" fill="#e6e6e6"/><rect width="2.136" height="2.136" transform="translate(78.659 144.153)" fill="#e6e6e6"/><rect width="2.136" height="2.136" transform="translate(78.659 146.762)" fill="#e6e6e6"/><rect width="18.832" height="18.832" transform="translate(79.203 108.419)" fill="#e6e6e6"/><rect width="125.157" height="80.156" transform="translate(141.945 0.071)" fill="#e6e6e6"/><rect width="103.767" height="39.212" transform="translate(151.536 22.496)" fill="#fff"/><rect width="24.904" height="1.423" transform="translate(172.48 29.289)" fill="#e6e6e6"/><rect width="38.535" height="1.423" transform="translate(171.821 34.515)" fill="#6c63ff"/><rect width="30.241" height="1.423" transform="translate(172.213 39.438)" fill="#e6e6e6"/><rect width="17.789" height="1.423" transform="translate(172.774 44.36)" fill="#e6e6e6"/><rect width="26.683" height="1.423" transform="translate(172.376 49.283)" fill="#e6e6e6"/><rect width="2.846" height="2.846" transform="translate(163.215 28.88)" fill="#e6e6e6"/><rect width="2.846" height="2.846" transform="translate(163.215 33.803)" fill="#6c63ff"/><rect width="2.846" height="2.846" transform="translate(163.215 38.726)" fill="#e6e6e6"/><rect width="2.846" height="2.846" transform="translate(163.215 43.649)" fill="#e6e6e6"/><rect width="2.846" height="2.846" transform="translate(163.215 48.572)" fill="#e6e6e6"/><rect width="25.48" height="25.48" transform="translate(221.269 27.409)" fill="#e6e6e6"/><rect width="125.157" height="5.317" transform="translate(141.898)" fill="#6c63ff"/><circle cx="1.067" cy="1.067" r="1.067" transform="translate(150.385 1.651)" fill="#fff"/><circle cx="1.067" cy="1.067" r="1.067" transform="translate(153.768 1.651)" fill="#fff"/><circle cx="1.067" cy="1.067" r="1.067" transform="translate(157.151 1.651)" fill="#fff"/><rect width="30.541" height="15.779" transform="translate(306.995 104.213)" fill="#e6e6e6"/><rect width="30.541" height="15.779" transform="translate(306.995 143.451)" fill="#e6e6e6"/><circle cx="25.45" cy="25.45" r="25.45" transform="translate(296.135 106.088)" fill="#e6e6e6"/><circle cx="19.851" cy="19.851" r="19.851" transform="translate(302.116 111.75)" fill="#fff"/><rect width="15.396" height="0.88" transform="translate(316.111 127.814)" fill="#e2e2e2"/><rect width="23.822" height="0.88" transform="translate(315.417 130.098)" fill="#6c63ff"/><rect width="18.695" height="0.88" transform="translate(315.833 132.25)" fill="#e2e2e2"/><rect width="10.997" height="0.88" transform="translate(316.441 134.402)" fill="#e2e2e2"/><rect width="16.496" height="0.88" transform="translate(316.009 136.554)" fill="#e2e2e2"/><rect width="1.76" height="1.76" transform="translate(310.841 127.506)" fill="#e2e2e2"/><rect width="1.76" height="1.76" transform="translate(310.841 129.655)" fill="#6c63ff"/><rect width="1.76" height="1.76" transform="translate(310.841 131.805)" fill="#e2e2e2"/><rect width="1.76" height="1.76" transform="translate(310.841 133.955)" fill="#e2e2e2"/><rect width="1.76" height="1.76" transform="translate(310.841 136.105)" fill="#e2e2e2"/></g><text transform="translate(308 2127)" fill="#878a95" font-size="18" font-family="SegoeUI, Segoe UI"><tspan x="-16.471" y="0">PHP</tspan></text><g transform="translate(-390.5 -32.685)"><path d="M11.382.741,8.663,6.252l-6.082.887a1.333,1.333,0,0,0-.737,2.273l4.4,4.287L5.2,19.755a1.331,1.331,0,0,0,1.931,1.4l5.441-2.86,5.441,2.86a1.332,1.332,0,0,0,1.931-1.4L18.908,13.7l4.4-4.287a1.333,1.333,0,0,0-.737-2.273l-6.082-.887L13.771.741a1.333,1.333,0,0,0-2.389,0Z" transform="translate(851.059 2144.686)" fill="#fe0"/><path d="M11.382.741,8.663,6.252l-6.082.887a1.333,1.333,0,0,0-.737,2.273l4.4,4.287L5.2,19.755a1.331,1.331,0,0,0,1.931,1.4l5.441-2.86,5.441,2.86a1.332,1.332,0,0,0,1.931-1.4L18.908,13.7l4.4-4.287a1.333,1.333,0,0,0-.737-2.273l-6.082-.887L13.771.741a1.333,1.333,0,0,0-2.389,0Z" transform="translate(942.059 2144.686)" fill="#fe0"/><path d="M11.382.741,8.663,6.252l-6.082.887a1.333,1.333,0,0,0-.737,2.273l4.4,4.287L5.2,19.755a1.331,1.331,0,0,0,1.931,1.4l5.441-2.86,5.441,2.86a1.332,1.332,0,0,0,1.931-1.4L18.908,13.7l4.4-4.287a1.333,1.333,0,0,0-.737-2.273l-6.082-.887L13.771.741a1.333,1.333,0,0,0-2.389,0Z" transform="translate(912.059 2144.686)" fill="#fe0"/><path d="M11.382.741,8.663,6.252l-6.082.887a1.333,1.333,0,0,0-.737,2.273l4.4,4.287L5.2,19.755a1.331,1.331,0,0,0,1.931,1.4l5.441-2.86,5.441,2.86a1.332,1.332,0,0,0,1.931-1.4L18.908,13.7l4.4-4.287a1.333,1.333,0,0,0-.737-2.273l-6.082-.887L13.771.741a1.333,1.333,0,0,0-2.389,0Z" transform="translate(881.059 2144.686)" fill="#fe0"/><path d="M11.382.741,8.663,6.252l-6.082.887a1.333,1.333,0,0,0-.737,2.273l4.4,4.287L5.2,19.755a1.331,1.331,0,0,0,1.931,1.4l5.441-2.86,5.441,2.86a1.332,1.332,0,0,0,1.931-1.4L18.908,13.7l4.4-4.287a1.333,1.333,0,0,0-.737-2.273l-6.082-.887L13.771.741a1.333,1.333,0,0,0-2.389,0Z" transform="translate(972.059 2144.686)" fill="#fe0"/></g><text transform="translate(366 2163)" fill="#878a95" font-size="18" font-family="SegoeUI, Segoe UI"><tspan x="-73.648" y="0">JavaScript, Node.js</tspan></text><g transform="translate(-390.5 3.315)"><path d="M11.382.741,8.663,6.252l-6.082.887a1.333,1.333,0,0,0-.737,2.273l4.4,4.287L5.2,19.755a1.331,1.331,0,0,0,1.931,1.4l5.441-2.86,5.441,2.86a1.332,1.332,0,0,0,1.931-1.4L18.908,13.7l4.4-4.287a1.333,1.333,0,0,0-.737-2.273l-6.082-.887L13.771.741a1.333,1.333,0,0,0-2.389,0Z" transform="translate(851.059 2144.686)" fill="#fe0"/><path d="M11.382.741,8.663,6.252l-6.082.887a1.333,1.333,0,0,0-.737,2.273l4.4,4.287L5.2,19.755a1.331,1.331,0,0,0,1.931,1.4l5.441-2.86,5.441,2.86a1.332,1.332,0,0,0,1.931-1.4L18.908,13.7l4.4-4.287a1.333,1.333,0,0,0-.737-2.273l-6.082-.887L13.771.741a1.333,1.333,0,0,0-2.389,0Z" transform="translate(942.059 2144.686)" fill="#fe0"/><path d="M11.382.741,8.663,6.252l-6.082.887a1.333,1.333,0,0,0-.737,2.273l4.4,4.287L5.2,19.755a1.331,1.331,0,0,0,1.931,1.4l5.441-2.86,5.441,2.86a1.332,1.332,0,0,0,1.931-1.4L18.908,13.7l4.4-4.287a1.333,1.333,0,0,0-.737-2.273l-6.082-.887L13.771.741a1.333,1.333,0,0,0-2.389,0Z" transform="translate(912.059 2144.686)" fill="#fe0"/><path d="M11.382.741,8.663,6.252l-6.082.887a1.333,1.333,0,0,0-.737,2.273l4.4,4.287L5.2,19.755a1.331,1.331,0,0,0,1.931,1.4l5.441-2.86,5.441,2.86a1.332,1.332,0,0,0,1.931-1.4L18.908,13.7l4.4-4.287a1.333,1.333,0,0,0-.737-2.273l-6.082-.887L13.771.741a1.333,1.333,0,0,0-2.389,0Z" transform="translate(881.059 2144.686)" fill="#fe0"/><path d="M11.382.741,8.663,6.252l-6.082.887a1.333,1.333,0,0,0-.737,2.273l4.4,4.287L5.2,19.755a1.331,1.331,0,0,0,1.931,1.4l5.441-2.86,5.441,2.86a1.332,1.332,0,0,0,1.931-1.4L18.908,13.7l4.4-4.287a1.333,1.333,0,0,0-.737-2.273l-6.082-.887L13.771.741a1.333,1.333,0,0,0-2.389,0Z" transform="translate(972.059 2144.686)" fill="#fe0"/></g><text transform="translate(346 2200)" fill="#878a95" font-size="18" font-family="SegoeUI, Segoe UI"><tspan x="-54.448" y="0">Ts(TypeScript)</tspan></text><g transform="translate(-391 1)"><path d="M11.382.741,8.663,6.252l-6.082.887a1.333,1.333,0,0,0-.737,2.273l4.4,4.287L5.2,19.755a1.331,1.331,0,0,0,1.931,1.4l5.441-2.86,5.441,2.86a1.332,1.332,0,0,0,1.931-1.4L18.908,13.7l4.4-4.287a1.333,1.333,0,0,0-.737-2.273l-6.082-.887L13.771.741a1.333,1.333,0,0,0-2.389,0Z" transform="translate(882.559 2183.001)" fill="#fe0"/><path d="M11.382.741,8.663,6.252l-6.082.887a1.333,1.333,0,0,0-.737,2.273l4.4,4.287L5.2,19.755a1.331,1.331,0,0,0,1.931,1.4l5.441-2.86,5.441,2.86a1.332,1.332,0,0,0,1.931-1.4L18.908,13.7l4.4-4.287a1.333,1.333,0,0,0-.737-2.273l-6.082-.887L13.771.741a1.333,1.333,0,0,0-2.389,0Z" transform="translate(913.559 2183.001)" fill="#fe0"/><path d="M11.382.741,8.663,6.252l-6.082.887a1.333,1.333,0,0,0-.737,2.273l4.4,4.287L5.2,19.755a1.331,1.331,0,0,0,1.931,1.4l5.441-2.86,5.441,2.86a1.332,1.332,0,0,0,1.931-1.4L18.908,13.7l4.4-4.287a1.333,1.333,0,0,0-.737-2.273l-6.082-.887L13.771.741a1.333,1.333,0,0,0-2.389,0Z" transform="translate(944.559 2183.001)" fill="#fe0"/><path d="M11.382.741,8.663,6.252l-6.082.887a1.333,1.333,0,0,0-.737,2.273l4.4,4.287L5.2,19.755a1.331,1.331,0,0,0,1.931,1.4l5.441-2.86,5.441,2.86a1.332,1.332,0,0,0,1.931-1.4L18.908,13.7l4.4-4.287a1.333,1.333,0,0,0-.737-2.273l-6.082-.887L13.771.741a1.333,1.333,0,0,0-2.389,0Z" transform="translate(851.559 2183.001)" fill="#fe0"/></g><text transform="translate(311 2236)" fill="#878a95" font-size="18" font-family="SegoeUI, Segoe UI"><tspan x="-18.611" y="0">OOP</tspan></text><g transform="translate(-390.5 74.315)"><path d="M11.382.741,8.663,6.252l-6.082.887a1.333,1.333,0,0,0-.737,2.273l4.4,4.287L5.2,19.755a1.331,1.331,0,0,0,1.931,1.4l5.441-2.86,5.441,2.86a1.332,1.332,0,0,0,1.931-1.4L18.908,13.7l4.4-4.287a1.333,1.333,0,0,0-.737-2.273l-6.082-.887L13.771.741a1.333,1.333,0,0,0-2.389,0Z" transform="translate(851.059 2144.686)" fill="#fe0"/><path d="M11.382.741,8.663,6.252l-6.082.887a1.333,1.333,0,0,0-.737,2.273l4.4,4.287L5.2,19.755a1.331,1.331,0,0,0,1.931,1.4l5.441-2.86,5.441,2.86a1.332,1.332,0,0,0,1.931-1.4L18.908,13.7l4.4-4.287a1.333,1.333,0,0,0-.737-2.273l-6.082-.887L13.771.741a1.333,1.333,0,0,0-2.389,0Z" transform="translate(942.059 2144.686)" fill="#fe0"/><path d="M11.382.741,8.663,6.252l-6.082.887a1.333,1.333,0,0,0-.737,2.273l4.4,4.287L5.2,19.755a1.331,1.331,0,0,0,1.931,1.4l5.441-2.86,5.441,2.86a1.332,1.332,0,0,0,1.931-1.4L18.908,13.7l4.4-4.287a1.333,1.333,0,0,0-.737-2.273l-6.082-.887L13.771.741a1.333,1.333,0,0,0-2.389,0Z" transform="translate(912.059 2144.686)" fill="#fe0"/><path d="M11.382.741,8.663,6.252l-6.082.887a1.333,1.333,0,0,0-.737,2.273l4.4,4.287L5.2,19.755a1.331,1.331,0,0,0,1.931,1.4l5.441-2.86,5.441,2.86a1.332,1.332,0,0,0,1.931-1.4L18.908,13.7l4.4-4.287a1.333,1.333,0,0,0-.737-2.273l-6.082-.887L13.771.741a1.333,1.333,0,0,0-2.389,0Z" transform="translate(881.059 2144.686)" fill="#fe0"/><path d="M11.382.741,8.663,6.252l-6.082.887a1.333,1.333,0,0,0-.737,2.273l4.4,4.287L5.2,19.755a1.331,1.331,0,0,0,1.931,1.4l5.441-2.86,5.441,2.86a1.332,1.332,0,0,0,1.931-1.4L18.908,13.7l4.4-4.287a1.333,1.333,0,0,0-.737-2.273l-6.082-.887L13.771.741a1.333,1.333,0,0,0-2.389,0Z" transform="translate(972.059 2144.686)" fill="#fe0"/></g><text transform="translate(369 2272)" fill="#878a95" font-size="18" font-family="SegoeUI, Segoe UI"><tspan x="-76.961" y="0">MVC, API, API-MVC</tspan></text><g transform="translate(-390.5 110.315)"><path d="M11.382.741,8.663,6.252l-6.082.887a1.333,1.333,0,0,0-.737,2.273l4.4,4.287L5.2,19.755a1.331,1.331,0,0,0,1.931,1.4l5.441-2.86,5.441,2.86a1.332,1.332,0,0,0,1.931-1.4L18.908,13.7l4.4-4.287a1.333,1.333,0,0,0-.737-2.273l-6.082-.887L13.771.741a1.333,1.333,0,0,0-2.389,0Z" transform="translate(851.059 2144.686)" fill="#fe0"/><path d="M11.382.741,8.663,6.252l-6.082.887a1.333,1.333,0,0,0-.737,2.273l4.4,4.287L5.2,19.755a1.331,1.331,0,0,0,1.931,1.4l5.441-2.86,5.441,2.86a1.332,1.332,0,0,0,1.931-1.4L18.908,13.7l4.4-4.287a1.333,1.333,0,0,0-.737-2.273l-6.082-.887L13.771.741a1.333,1.333,0,0,0-2.389,0Z" transform="translate(942.059 2144.686)" fill="#fe0"/><path d="M11.382.741,8.663,6.252l-6.082.887a1.333,1.333,0,0,0-.737,2.273l4.4,4.287L5.2,19.755a1.331,1.331,0,0,0,1.931,1.4l5.441-2.86,5.441,2.86a1.332,1.332,0,0,0,1.931-1.4L18.908,13.7l4.4-4.287a1.333,1.333,0,0,0-.737-2.273l-6.082-.887L13.771.741a1.333,1.333,0,0,0-2.389,0Z" transform="translate(912.059 2144.686)" fill="#fe0"/><path d="M11.382.741,8.663,6.252l-6.082.887a1.333,1.333,0,0,0-.737,2.273l4.4,4.287L5.2,19.755a1.331,1.331,0,0,0,1.931,1.4l5.441-2.86,5.441,2.86a1.332,1.332,0,0,0,1.931-1.4L18.908,13.7l4.4-4.287a1.333,1.333,0,0,0-.737-2.273l-6.082-.887L13.771.741a1.333,1.333,0,0,0-2.389,0Z" transform="translate(881.059 2144.686)" fill="#fe0"/><path d="M11.382.741,8.663,6.252l-6.082.887a1.333,1.333,0,0,0-.737,2.273l4.4,4.287L5.2,19.755a1.331,1.331,0,0,0,1.931,1.4l5.441-2.86,5.441,2.86a1.332,1.332,0,0,0,1.931-1.4L18.908,13.7l4.4-4.287a1.333,1.333,0,0,0-.737-2.273l-6.082-.887L13.771.741a1.333,1.333,0,0,0-2.389,0Z" transform="translate(972.059 2144.686)" fill="#fe0"/></g><text transform="translate(347 2308)" fill="#878a95" font-size="18" font-family="SegoeUI, Segoe UI"><tspan x="-55.446" y="0">Laravel 5,6,7,8</tspan></text><path d="M11.382.741,8.663,6.252l-6.082.887a1.333,1.333,0,0,0-.737,2.273l4.4,4.287L5.2,19.755a1.331,1.331,0,0,0,1.931,1.4l5.441-2.86,5.441,2.86a1.332,1.332,0,0,0,1.931-1.4L18.908,13.7l4.4-4.287a1.333,1.333,0,0,0-.737-2.273l-6.082-.887L13.771.741a1.333,1.333,0,0,0-2.389,0Z" transform="translate(460.559 2291.001)" fill="#fe0"/><path d="M11.382.741,8.663,6.252l-6.082.887a1.333,1.333,0,0,0-.737,2.273l4.4,4.287L5.2,19.755a1.331,1.331,0,0,0,1.931,1.4l5.441-2.86,5.441,2.86a1.332,1.332,0,0,0,1.931-1.4L18.908,13.7l4.4-4.287a1.333,1.333,0,0,0-.737-2.273l-6.082-.887L13.771.741a1.333,1.333,0,0,0-2.389,0Z" transform="translate(551.559 2291.001)" fill="#fe0"/><path d="M11.382.741,8.663,6.252l-6.082.887a1.333,1.333,0,0,0-.737,2.273l4.4,4.287L5.2,19.755a1.331,1.331,0,0,0,1.931,1.4l5.441-2.86,5.441,2.86a1.332,1.332,0,0,0,1.931-1.4L18.908,13.7l4.4-4.287a1.333,1.333,0,0,0-.737-2.273l-6.082-.887L13.771.741a1.333,1.333,0,0,0-2.389,0Z" transform="translate(521.559 2291.001)" fill="#fe0"/><path d="M11.382.741,8.663,6.252l-6.082.887a1.333,1.333,0,0,0-.737,2.273l4.4,4.287L5.2,19.755a1.331,1.331,0,0,0,1.931,1.4l5.441-2.86,5.441,2.86a1.332,1.332,0,0,0,1.931-1.4L18.908,13.7l4.4-4.287a1.333,1.333,0,0,0-.737-2.273l-6.082-.887L13.771.741a1.333,1.333,0,0,0-2.389,0Z" transform="translate(490.559 2291.001)" fill="#fe0"/><path d="M11.382.741,8.663,6.252l-6.082.887a1.333,1.333,0,0,0-.737,2.273l4.4,4.287L5.2,19.755a1.331,1.331,0,0,0,1.931,1.4l5.441-2.86,5.441,2.86a1.332,1.332,0,0,0,1.931-1.4L18.908,13.7l4.4-4.287a1.333,1.333,0,0,0-.737-2.273l-6.082-.887L13.771.741a1.333,1.333,0,0,0-2.389,0Z" transform="translate(581.559 2291.001)" fill="#fe0"/><text transform="translate(329 2343)" fill="#878a95" font-size="18" font-family="SegoeUI, Segoe UI"><tspan x="-37.397" y="0">Express.js</tspan></text><path d="M11.382.741,8.663,6.252l-6.082.887a1.333,1.333,0,0,0-.737,2.273l4.4,4.287L5.2,19.755a1.331,1.331,0,0,0,1.931,1.4l5.441-2.86,5.441,2.86a1.332,1.332,0,0,0,1.931-1.4L18.908,13.7l4.4-4.287a1.333,1.333,0,0,0-.737-2.273l-6.082-.887L13.771.741a1.333,1.333,0,0,0-2.389,0Z" transform="translate(460.559 2324.697)" fill="#fe0"/><path d="M11.382.741,8.663,6.252l-6.082.887a1.333,1.333,0,0,0-.737,2.273l4.4,4.287L5.2,19.755a1.331,1.331,0,0,0,1.931,1.4l5.441-2.86,5.441,2.86a1.332,1.332,0,0,0,1.931-1.4L18.908,13.7l4.4-4.287a1.333,1.333,0,0,0-.737-2.273l-6.082-.887L13.771.741a1.333,1.333,0,0,0-2.389,0Z" transform="translate(551.559 2324.697)" fill="#fe0"/><path d="M11.382.741,8.663,6.252l-6.082.887a1.333,1.333,0,0,0-.737,2.273l4.4,4.287L5.2,19.755a1.331,1.331,0,0,0,1.931,1.4l5.441-2.86,5.441,2.86a1.332,1.332,0,0,0,1.931-1.4L18.908,13.7l4.4-4.287a1.333,1.333,0,0,0-.737-2.273l-6.082-.887L13.771.741a1.333,1.333,0,0,0-2.389,0Z" transform="translate(521.559 2324.697)" fill="#fe0"/><path d="M11.382.741,8.663,6.252l-6.082.887a1.333,1.333,0,0,0-.737,2.273l4.4,4.287L5.2,19.755a1.331,1.331,0,0,0,1.931,1.4l5.441-2.86,5.441,2.86a1.332,1.332,0,0,0,1.931-1.4L18.908,13.7l4.4-4.287a1.333,1.333,0,0,0-.737-2.273l-6.082-.887L13.771.741a1.333,1.333,0,0,0-2.389,0Z" transform="translate(490.559 2324.697)" fill="#fe0"/><path d="M11.382.741,8.663,6.252l-6.082.887a1.333,1.333,0,0,0-.737,2.273l4.4,4.287L5.2,19.755a1.331,1.331,0,0,0,1.931,1.4l5.441-2.86,5.441,2.86a1.332,1.332,0,0,0,1.931-1.4L18.908,13.7l4.4-4.287a1.333,1.333,0,0,0-.737-2.273l-6.082-.887L13.771.741a1.333,1.333,0,0,0-2.389,0Z" transform="translate(581.559 2324.697)" fill="#fe0"/><text transform="translate(328 2377)" fill="#878a95" font-size="18" font-family="SegoeUI, Segoe UI"><tspan x="-35.846" y="0">Socket.io</tspan></text><path d="M11.382.741,8.663,6.252l-6.082.887a1.333,1.333,0,0,0-.737,2.273l4.4,4.287L5.2,19.755a1.331,1.331,0,0,0,1.931,1.4l5.441-2.86,5.441,2.86a1.332,1.332,0,0,0,1.931-1.4L18.908,13.7l4.4-4.287a1.333,1.333,0,0,0-.737-2.273l-6.082-.887L13.771.741a1.333,1.333,0,0,0-2.389,0Z" transform="translate(460.559 2358.492)" fill="#fe0"/><path d="M11.382.741,8.663,6.252l-6.082.887a1.333,1.333,0,0,0-.737,2.273l4.4,4.287L5.2,19.755a1.331,1.331,0,0,0,1.931,1.4l5.441-2.86,5.441,2.86a1.332,1.332,0,0,0,1.931-1.4L18.908,13.7l4.4-4.287a1.333,1.333,0,0,0-.737-2.273l-6.082-.887L13.771.741a1.333,1.333,0,0,0-2.389,0Z" transform="translate(551.559 2358.492)" fill="#fe0"/><path d="M11.382.741,8.663,6.252l-6.082.887a1.333,1.333,0,0,0-.737,2.273l4.4,4.287L5.2,19.755a1.331,1.331,0,0,0,1.931,1.4l5.441-2.86,5.441,2.86a1.332,1.332,0,0,0,1.931-1.4L18.908,13.7l4.4-4.287a1.333,1.333,0,0,0-.737-2.273l-6.082-.887L13.771.741a1.333,1.333,0,0,0-2.389,0Z" transform="translate(521.559 2358.492)" fill="#fe0"/><path d="M11.382.741,8.663,6.252l-6.082.887a1.333,1.333,0,0,0-.737,2.273l4.4,4.287L5.2,19.755a1.331,1.331,0,0,0,1.931,1.4l5.441-2.86,5.441,2.86a1.332,1.332,0,0,0,1.931-1.4L18.908,13.7l4.4-4.287a1.333,1.333,0,0,0-.737-2.273l-6.082-.887L13.771.741a1.333,1.333,0,0,0-2.389,0Z" transform="translate(490.559 2358.492)" fill="#fe0"/><path d="M11.382.741,8.663,6.252l-6.082.887a1.333,1.333,0,0,0-.737,2.273l4.4,4.287L5.2,19.755a1.331,1.331,0,0,0,1.931,1.4l5.441-2.86,5.441,2.86a1.332,1.332,0,0,0,1.931-1.4L18.908,13.7l4.4-4.287a1.333,1.333,0,0,0-.737-2.273l-6.082-.887L13.771.741a1.333,1.333,0,0,0-2.389,0Z" transform="translate(581.559 2358.492)" fill="#fe0"/><text transform="translate(337 2412)" fill="#878a95" font-size="18" font-family="SegoeUI, Segoe UI"><tspan x="-45.448" y="0">Clean Code</tspan></text><path d="M11.382.741,8.663,6.252l-6.082.887a1.333,1.333,0,0,0-.737,2.273l4.4,4.287L5.2,19.755a1.331,1.331,0,0,0,1.931,1.4l5.441-2.86,5.441,2.86a1.332,1.332,0,0,0,1.931-1.4L18.908,13.7l4.4-4.287a1.333,1.333,0,0,0-.737-2.273l-6.082-.887L13.771.741a1.333,1.333,0,0,0-2.389,0Z" transform="translate(460.559 2393.254)" fill="#fe0"/><path d="M11.382.741,8.663,6.252l-6.082.887a1.333,1.333,0,0,0-.737,2.273l4.4,4.287L5.2,19.755a1.331,1.331,0,0,0,1.931,1.4l5.441-2.86,5.441,2.86a1.332,1.332,0,0,0,1.931-1.4L18.908,13.7l4.4-4.287a1.333,1.333,0,0,0-.737-2.273l-6.082-.887L13.771.741a1.333,1.333,0,0,0-2.389,0Z" transform="translate(551.559 2393.254)" fill="#fe0"/><path d="M11.382.741,8.663,6.252l-6.082.887a1.333,1.333,0,0,0-.737,2.273l4.4,4.287L5.2,19.755a1.331,1.331,0,0,0,1.931,1.4l5.441-2.86,5.441,2.86a1.332,1.332,0,0,0,1.931-1.4L18.908,13.7l4.4-4.287a1.333,1.333,0,0,0-.737-2.273l-6.082-.887L13.771.741a1.333,1.333,0,0,0-2.389,0Z" transform="translate(521.559 2393.254)" fill="#fe0"/><path d="M11.382.741,8.663,6.252l-6.082.887a1.333,1.333,0,0,0-.737,2.273l4.4,4.287L5.2,19.755a1.331,1.331,0,0,0,1.931,1.4l5.441-2.86,5.441,2.86a1.332,1.332,0,0,0,1.931-1.4L18.908,13.7l4.4-4.287a1.333,1.333,0,0,0-.737-2.273l-6.082-.887L13.771.741a1.333,1.333,0,0,0-2.389,0Z" transform="translate(490.559 2393.254)" fill="#fe0"/><path d="M11.382.741,8.663,6.252l-6.082.887a1.333,1.333,0,0,0-.737,2.273l4.4,4.287L5.2,19.755a1.331,1.331,0,0,0,1.931,1.4l5.441-2.86,5.441,2.86a1.332,1.332,0,0,0,1.931-1.4L18.908,13.7l4.4-4.287a1.333,1.333,0,0,0-.737-2.273l-6.082-.887L13.771.741a1.333,1.333,0,0,0-2.389,0Z" transform="translate(581.559 2393.254)" fill="#fe0"/><text transform="translate(354 2587)" fill="#878a95" font-size="18" font-family="SegoeUI, Segoe UI"><tspan x="-62.033" y="0">Design Patterns</tspan></text><text transform="translate(309 2623)" fill="#878a95" font-size="18" font-family="SegoeUI, Segoe UI"><tspan x="-17.336" y="0">TDD</tspan></text><path d="M11.382.741,8.663,6.252l-6.082.887a1.333,1.333,0,0,0-.737,2.273l4.4,4.287L5.2,19.755a1.331,1.331,0,0,0,1.931,1.4l5.441-2.86,5.441,2.86a1.332,1.332,0,0,0,1.931-1.4L18.908,13.7l4.4-4.287a1.333,1.333,0,0,0-.737-2.273l-6.082-.887L13.771.741a1.333,1.333,0,0,0-2.389,0Z" transform="translate(460.559 2564.663)" fill="#fe0"/><path d="M14.024,3l3.407,6.9,7.618,1.113-5.512,5.369,1.3,7.585-6.813-3.583L7.211,23.968l1.3-7.585L3,11.015,10.618,9.9Z" transform="translate(459 2597.162)" fill="none" stroke="#fe0" stroke-linecap="round" stroke-linejoin="round" stroke-width="3"/><text transform="translate(350 2448)" fill="#878a95" font-size="18" font-family="SegoeUI, Segoe UI"><tspan x="-57.792" y="0">Error Handling</tspan></text><path d="M11.382.741,8.663,6.252l-6.082.887a1.333,1.333,0,0,0-.737,2.273l4.4,4.287L5.2,19.755a1.331,1.331,0,0,0,1.931,1.4l5.441-2.86,5.441,2.86a1.332,1.332,0,0,0,1.931-1.4L18.908,13.7l4.4-4.287a1.333,1.333,0,0,0-.737-2.273l-6.082-.887L13.771.741a1.333,1.333,0,0,0-2.389,0Z" transform="translate(491.559 2428.016)" fill="#fe0"/><path d="M11.382.741,8.663,6.252l-6.082.887a1.333,1.333,0,0,0-.737,2.273l4.4,4.287L5.2,19.755a1.331,1.331,0,0,0,1.931,1.4l5.441-2.86,5.441,2.86a1.332,1.332,0,0,0,1.931-1.4L18.908,13.7l4.4-4.287a1.333,1.333,0,0,0-.737-2.273l-6.082-.887L13.771.741a1.333,1.333,0,0,0-2.389,0Z" transform="translate(522.559 2428.016)" fill="#fe0"/><path d="M11.382.741,8.663,6.252l-6.082.887a1.333,1.333,0,0,0-.737,2.273l4.4,4.287L5.2,19.755a1.331,1.331,0,0,0,1.931,1.4l5.441-2.86,5.441,2.86a1.332,1.332,0,0,0,1.931-1.4L18.908,13.7l4.4-4.287a1.333,1.333,0,0,0-.737-2.273l-6.082-.887L13.771.741a1.333,1.333,0,0,0-2.389,0Z" transform="translate(553.559 2428.016)" fill="#fe0"/><path d="M11.382.741,8.663,6.252l-6.082.887a1.333,1.333,0,0,0-.737,2.273l4.4,4.287L5.2,19.755a1.331,1.331,0,0,0,1.931,1.4l5.441-2.86,5.441,2.86a1.332,1.332,0,0,0,1.931-1.4L18.908,13.7l4.4-4.287a1.333,1.333,0,0,0-.737-2.273l-6.082-.887L13.771.741a1.333,1.333,0,0,0-2.389,0Z" transform="translate(460.559 2428.016)" fill="#fe0"/><text transform="translate(335 2483)" fill="#878a95" font-size="18" font-family="SegoeUI, Segoe UI"><tspan x="-42.82" y="0">Mongoose</tspan></text><path d="M11.382.741,8.663,6.252l-6.082.887a1.333,1.333,0,0,0-.737,2.273l4.4,4.287L5.2,19.755a1.331,1.331,0,0,0,1.931,1.4l5.441-2.86,5.441,2.86a1.332,1.332,0,0,0,1.931-1.4L18.908,13.7l4.4-4.287a1.333,1.333,0,0,0-.737-2.273l-6.082-.887L13.771.741a1.333,1.333,0,0,0-2.389,0Z" transform="translate(491.559 2462.778)" fill="#fe0"/><path d="M11.382.741,8.663,6.252l-6.082.887a1.333,1.333,0,0,0-.737,2.273l4.4,4.287L5.2,19.755a1.331,1.331,0,0,0,1.931,1.4l5.441-2.86,5.441,2.86a1.332,1.332,0,0,0,1.931-1.4L18.908,13.7l4.4-4.287a1.333,1.333,0,0,0-.737-2.273l-6.082-.887L13.771.741a1.333,1.333,0,0,0-2.389,0Z" transform="translate(522.559 2462.778)" fill="#fe0"/><path d="M11.382.741,8.663,6.252l-6.082.887a1.333,1.333,0,0,0-.737,2.273l4.4,4.287L5.2,19.755a1.331,1.331,0,0,0,1.931,1.4l5.441-2.86,5.441,2.86a1.332,1.332,0,0,0,1.931-1.4L18.908,13.7l4.4-4.287a1.333,1.333,0,0,0-.737-2.273l-6.082-.887L13.771.741a1.333,1.333,0,0,0-2.389,0Z" transform="translate(553.559 2462.778)" fill="#fe0"/><path d="M11.382.741,8.663,6.252l-6.082.887a1.333,1.333,0,0,0-.737,2.273l4.4,4.287L5.2,19.755a1.331,1.331,0,0,0,1.931,1.4l5.441-2.86,5.441,2.86a1.332,1.332,0,0,0,1.931-1.4L18.908,13.7l4.4-4.287a1.333,1.333,0,0,0-.737-2.273l-6.082-.887L13.771.741a1.333,1.333,0,0,0-2.389,0Z" transform="translate(460.559 2462.778)" fill="#fe0"/><text transform="translate(332 2517)" fill="#878a95" font-size="18" font-family="SegoeUI, Segoe UI"><tspan x="-40.491" y="0">MongoDB</tspan></text><path d="M11.382.741,8.663,6.252l-6.082.887a1.333,1.333,0,0,0-.737,2.273l4.4,4.287L5.2,19.755a1.331,1.331,0,0,0,1.931,1.4l5.441-2.86,5.441,2.86a1.332,1.332,0,0,0,1.931-1.4L18.908,13.7l4.4-4.287a1.333,1.333,0,0,0-.737-2.273l-6.082-.887L13.771.741a1.333,1.333,0,0,0-2.389,0Z" transform="translate(460.559 2496.574)" fill="#fe0"/><path d="M11.382.741,8.663,6.252l-6.082.887a1.333,1.333,0,0,0-.737,2.273l4.4,4.287L5.2,19.755a1.331,1.331,0,0,0,1.931,1.4l5.441-2.86,5.441,2.86a1.332,1.332,0,0,0,1.931-1.4L18.908,13.7l4.4-4.287a1.333,1.333,0,0,0-.737-2.273l-6.082-.887L13.771.741a1.333,1.333,0,0,0-2.389,0Z" transform="translate(551.559 2496.574)" fill="#fe0"/><path d="M11.382.741,8.663,6.252l-6.082.887a1.333,1.333,0,0,0-.737,2.273l4.4,4.287L5.2,19.755a1.331,1.331,0,0,0,1.931,1.4l5.441-2.86,5.441,2.86a1.332,1.332,0,0,0,1.931-1.4L18.908,13.7l4.4-4.287a1.333,1.333,0,0,0-.737-2.273l-6.082-.887L13.771.741a1.333,1.333,0,0,0-2.389,0Z" transform="translate(521.559 2496.574)" fill="#fe0"/><path d="M11.382.741,8.663,6.252l-6.082.887a1.333,1.333,0,0,0-.737,2.273l4.4,4.287L5.2,19.755a1.331,1.331,0,0,0,1.931,1.4l5.441-2.86,5.441,2.86a1.332,1.332,0,0,0,1.931-1.4L18.908,13.7l4.4-4.287a1.333,1.333,0,0,0-.737-2.273l-6.082-.887L13.771.741a1.333,1.333,0,0,0-2.389,0Z" transform="translate(490.559 2496.574)" fill="#fe0"/><path d="M11.382.741,8.663,6.252l-6.082.887a1.333,1.333,0,0,0-.737,2.273l4.4,4.287L5.2,19.755a1.331,1.331,0,0,0,1.931,1.4l5.441-2.86,5.441,2.86a1.332,1.332,0,0,0,1.931-1.4L18.908,13.7l4.4-4.287a1.333,1.333,0,0,0-.737-2.273l-6.082-.887L13.771.741a1.333,1.333,0,0,0-2.389,0Z" transform="translate(581.559 2496.574)" fill="#fe0"/><text transform="translate(359 2552)" fill="#878a95" font-size="18" font-family="SegoeUI, Segoe UI"><tspan x="-66.674" y="0">MariaDB, MySQL</tspan></text><path d="M11.382.741,8.663,6.252l-6.082.887a1.333,1.333,0,0,0-.737,2.273l4.4,4.287L5.2,19.755a1.331,1.331,0,0,0,1.931,1.4l5.441-2.86,5.441,2.86a1.332,1.332,0,0,0,1.931-1.4L18.908,13.7l4.4-4.287a1.333,1.333,0,0,0-.737-2.273l-6.082-.887L13.771.741a1.333,1.333,0,0,0-2.389,0Z" transform="translate(460.559 2531.335)" fill="#fe0"/><path d="M11.382.741,8.663,6.252l-6.082.887a1.333,1.333,0,0,0-.737,2.273l4.4,4.287L5.2,19.755a1.331,1.331,0,0,0,1.931,1.4l5.441-2.86,5.441,2.86a1.332,1.332,0,0,0,1.931-1.4L18.908,13.7l4.4-4.287a1.333,1.333,0,0,0-.737-2.273l-6.082-.887L13.771.741a1.333,1.333,0,0,0-2.389,0Z" transform="translate(551.559 2531.335)" fill="#fe0"/><path d="M11.382.741,8.663,6.252l-6.082.887a1.333,1.333,0,0,0-.737,2.273l4.4,4.287L5.2,19.755a1.331,1.331,0,0,0,1.931,1.4l5.441-2.86,5.441,2.86a1.332,1.332,0,0,0,1.931-1.4L18.908,13.7l4.4-4.287a1.333,1.333,0,0,0-.737-2.273l-6.082-.887L13.771.741a1.333,1.333,0,0,0-2.389,0Z" transform="translate(521.559 2531.335)" fill="#fe0"/><path d="M11.382.741,8.663,6.252l-6.082.887a1.333,1.333,0,0,0-.737,2.273l4.4,4.287L5.2,19.755a1.331,1.331,0,0,0,1.931,1.4l5.441-2.86,5.441,2.86a1.332,1.332,0,0,0,1.931-1.4L18.908,13.7l4.4-4.287a1.333,1.333,0,0,0-.737-2.273l-6.082-.887L13.771.741a1.333,1.333,0,0,0-2.389,0Z" transform="translate(490.559 2531.335)" fill="#fe0"/><path d="M11.382.741,8.663,6.252l-6.082.887a1.333,1.333,0,0,0-.737,2.273l4.4,4.287L5.2,19.755a1.331,1.331,0,0,0,1.931,1.4l5.441-2.86,5.441,2.86a1.332,1.332,0,0,0,1.931-1.4L18.908,13.7l4.4-4.287a1.333,1.333,0,0,0-.737-2.273l-6.082-.887L13.771.741a1.333,1.333,0,0,0-2.389,0Z" transform="translate(581.559 2531.335)" fill="#fe0"/></g></svg>