<svg xmlns="http://www.w3.org/2000/svg" width="409" height="630.903" viewBox="0 0 409 630.903"><g transform="translate(-648 -1837)"><g transform="translate(648 1837)" fill="#fff"><path d="M 375 630.402587890625 L 34 630.402587890625 C 29.46115303039551 630.402587890625 25.05915451049805 629.7391967773438 20.91623115539551 628.430908203125 C 16.92107772827148 627.1693115234375 13.33500003814697 625.364501953125 10.25746154785156 623.0667724609375 C 7.190845966339111 620.7771606445312 4.784999847412109 618.1141967773438 3.10692310333252 615.1519775390625 C 1.377076864242554 612.0984497070312 0.5 608.8568115234375 0.5 605.5172729492188 L 0.5 25.38544845581055 C 0.5 22.0459098815918 1.377076864242554 18.80429458618164 3.10692310333252 15.75075531005859 C 4.784999847412109 12.78844738006592 7.190845966339111 10.12552452087402 10.25753879547119 7.835832595825195 C 13.33500003814697 5.538140296936035 16.92107772827148 3.733370780944824 20.91623115539551 2.471678495407104 C 25.05915451049805 1.163370847702026 29.46115303039551 0.4999862611293793 34 0.4999862611293793 L 375 0.4999862611293793 C 379.5388488769531 0.4999862611293793 383.9408569335938 1.163370847702026 388.0837707519531 2.471678495407104 C 392.0789184570312 3.733370780944824 395.6650085449219 5.538140296936035 398.7424621582031 7.835832595825195 C 401.8091430664062 10.12552452087402 404.2149963378906 12.78844738006592 405.89306640625 15.75075531005859 C 407.6229248046875 18.80429458618164 408.5 22.0459098815918 408.5 25.38544845581055 L 408.5 605.5172729492188 C 408.5 608.8568115234375 407.6229248046875 612.0984497070312 405.89306640625 615.1519775390625 C 404.2149963378906 618.1141967773438 401.8091430664062 620.7771606445312 398.7425537109375 623.0667724609375 C 395.6650085449219 625.364501953125 392.0789184570312 627.1693115234375 388.0837707519531 628.430908203125 C 383.9408569335938 629.7391967773438 379.5388488769531 630.402587890625 375 630.402587890625 Z" stroke="none"/><path d="M 34 0.99993896484375 C 15.80374145507812 0.99993896484375 1 11.939208984375 1 25.38543701171875 L 1 605.5172729492188 C 1 618.96337890625 15.80374145507812 629.9025268554688 34 629.9025268554688 L 375 629.9025268554688 C 393.1962585449219 629.9025268554688 408 618.96337890625 408 605.5172729492188 L 408 25.38543701171875 C 408 11.939208984375 393.1962585449219 0.99993896484375 375 0.99993896484375 L 34 0.99993896484375 M 34 -6.103515625e-05 L 375 -6.103515625e-05 C 393.7776794433594 -6.103515625e-05 409 11.3653564453125 409 25.38543701171875 L 409 605.5172729492188 C 409 619.537109375 393.7776794433594 630.9025268554688 375 630.9025268554688 L 34 630.9025268554688 C 15.22232055664062 630.9025268554688 0 619.537109375 0 605.5172729492188 L 0 25.38543701171875 C 0 11.3653564453125 15.22232055664062 -6.103515625e-05 34 -6.103515625e-05 Z" stroke="none" fill="#707070"/></g><g transform="translate(648 1843.366)"><rect width="236.393" height="153.583" transform="translate(155.045 0.459)" fill="#fff"/><path d="M765.9,352.028H528.583v-154.5H765.895ZM529.5,351.109H764.977V198.445H529.5Z" transform="translate(-373.997 -197.526)" fill="#e4e4e4"/><path d="M748.383,231.221c6.943.119,6.942,10.447,0,10.564C741.44,241.667,741.441,231.339,748.383,231.221Z" transform="translate(-484.493 -215.74)" fill="#3f3d56"/><path d="M780.718,231.221c6.943.119,6.942,10.447,0,10.564C773.775,241.667,773.776,231.339,780.718,231.221Z" transform="translate(-502.609 -215.74)" fill="#6c63ff"/><path d="M813.054,231.221c6.943.119,6.942,10.447,0,10.564C806.111,241.667,806.112,231.339,813.054,231.221Z" transform="translate(-520.726 -215.74)" fill="#cacaca"/><rect width="47.279" height="0.573" transform="translate(202.909 60.211)" fill="#cacaca"/><path d="M879.33,428.645H814.286V367.9H879.33Zm-64.471-.573h63.9v-59.6h-63.9Z" transform="translate(-528.437 -281.519)" fill="#cacaca"/><rect width="0.573" height="88.188" transform="matrix(0.682, -0.731, 0.731, 0.682, 285.939, 86.879)" fill="#cacaca"/><rect width="88.188" height="0.573" transform="matrix(0.731, -0.682, 0.682, 0.731, 285.938, 146.631)" fill="#cacaca"/><path d="M773.134,289.316h-155.3v-10.6h155.3Zm-154.73-.573H772.561v-9.456H618.4Z" transform="translate(-422.241 -238.426)" fill="#cacaca"/><path d="M675.814,391.316H618.831v-10.6h56.983Zm-56.41-.573h55.836v-9.456H619.4Z" transform="translate(-416.035 -289.81)" fill="#cacaca"/><path d="M675.814,430.316H618.831v-10.6h56.983Zm-56.41-.573h55.836v-9.456H619.4Z" transform="translate(-416.035 -309.457)" fill="#cacaca"/><path d="M675.814,469.316H618.831v-10.6h56.983Zm-56.41-.573h55.836v-9.456H619.4Z" transform="translate(-416.035 -329.104)" fill="#cacaca"/><path d="M633.331,329.864H618.047a35.5,35.5,0,0,0,0-15.283H633.33A19,19,0,0,0,633.331,329.864Z" transform="translate(-414.499 -256.401)" fill="#6c63ff"/><rect width="9.263" height="1.853" transform="translate(205.904 61.414)" fill="#fff"/><rect width="9.263" height="1.853" transform="translate(205.904 65.405)" fill="#fff"/><rect width="9.263" height="1.853" transform="translate(205.904 69.395)" fill="#fff"/><path d="M883.837,380.1H868.554a35.5,35.5,0,0,0,0-15.283h15.283a19,19,0,0,0,0,15.283Z" transform="translate(-557.773 -281.669)" fill="#6c63ff"/><rect width="9.263" height="1.853" transform="translate(313.097 86.273)" fill="#fff"/><rect width="9.263" height="1.853" transform="translate(313.097 90.264)" fill="#fff"/><rect width="9.263" height="1.853" transform="translate(313.097 94.254)" fill="#fff"/><path d="M926.607,308.819H911.324a35.5,35.5,0,0,0,0-15.283h15.283A19,19,0,0,0,926.607,308.819Z" transform="translate(-580.892 -245.816)" fill="#6c63ff"/><rect width="9.263" height="1.853" transform="translate(332.747 51)" fill="#fff"/><rect width="9.263" height="1.853" transform="translate(332.747 54.991)" fill="#fff"/><rect width="9.263" height="1.853" transform="translate(332.747 58.982)" fill="#fff"/><path d="M330.679,319.081H304.491V305.068a13.094,13.094,0,0,1,26.188,0Z" transform="translate(-238.83 -244.826)" fill="#2f2e41"/><path d="M232.042,467.23h5.632l2.68-21.726h-8.313Z" transform="translate(-129.983 -223.093)" fill="#ffb6b6"/><path d="M383.808,686.314H394.9a7.069,7.069,0,0,1,7.069,7.069v.23H383.808Z" transform="translate(-283.237 -444.017)" fill="#2f2e41"/><path d="M85.489,454.171l4.9,2.769,13.015-17.6-7.239-4.087Z" transform="translate(-46.212 -217.551)" fill="#ffb6b6"/><path d="M235.4,668.934l9.66,5.453h0a7.069,7.069,0,0,1,2.68,9.631l-.113.2-15.816-8.928Z" transform="translate(-196.474 -434.622)" fill="#2f2e41"/><path d="M277.054,455.911l-.435,2.173s-1.3,1.3-.652,1.956.435,3.695.435,3.695c-.365,5.548-7.614,36.725-8.911,42.815a65.492,65.492,0,0,0-17.821,19.343c-7.824,12.823-8.041,16.083-8.041,16.083l8.693,3.695,21.733-26.3s6.085-3.695,8.259-6.955,15.648-36.947,15.648-36.947l7.607,35.208s-.435,12.823,1.521,21.081a88.449,88.449,0,0,1,2.173,15.865l10.215-1.087s-.652-30.861-1.739-34.121c0,0,4.564-37.6-4.564-52.595l-7.356-19.613-7.2-2.773Z" transform="translate(-201.779 -309.484)" fill="#2f2e41"/><path d="M320.6,299.43c13.713.234,13.711,20.632,0,20.864C306.886,320.06,306.888,299.662,320.6,299.43Z" transform="translate(-242.052 -248.68)" fill="#ffb8b8"/><path d="M330.761,306.388H328.43L327.8,304.8l.317,1.587H315.366l.415-3.32-3.1,3.32h-3.091v-1.8a10.585,10.585,0,0,1,21.169,0Z" transform="translate(-241.651 -246.1)" fill="#2f2e41"/><path d="M332.984,358.1l-25.914.21,5.477,55.552s30.3-1.6,30.323-10.849l-2.839-8.22Z" transform="translate(-240.357 -276.906)" fill="#e4e4e4"/><path d="M348.016,507.065l-90.335,18.707c-.924.189-1.989-1.187-2.382-3.076l-9.495-45.85c-.391-1.889.041-3.575.964-3.769L337.1,454.369c.924-.189,1.989,1.187,2.382,3.076l9.495,45.85C349.37,505.185,348.938,506.872,348.016,507.065Z" transform="translate(-203.958 -323.326)" fill="#fff"/><g transform="translate(63.271 152.324)"><circle cx="8.067" cy="8.067" r="8.067" transform="translate(1.019 1.129)" fill="#f0f0f0"/><path d="M338.61,529.917l-38.752,8.025a.817.817,0,0,1-.147.018l11.754-35.541a1.31,1.31,0,0,1,2.234-.463l16.712,18.757.8.9Z" transform="translate(-299.711 -501.508)" fill="#e4e4e4"/><path d="M391.9,530.532l-33.517,6.941,4.541-10.778.327-.776,5.917-14.047a1.749,1.749,0,0,1,2.512-.679,1.563,1.563,0,0,1,.153.126Z" transform="translate(-331.428 -506.591)" fill="#e4e4e4"/></g><path d="M348.016,507.065l-90.335,18.707c-.924.189-1.989-1.187-2.382-3.076l-9.495-45.85c-.391-1.889.041-3.575.964-3.769L337.1,454.369c.924-.189,1.989,1.187,2.382,3.076l9.495,45.85C349.37,505.185,348.938,506.872,348.016,507.065ZM247.052,474.445c-.554.115-.813,1.128-.579,2.262l9.495,45.85c.235,1.134.875,1.959,1.429,1.846L347.732,505.7c.554-.115.813-1.128.579-2.262l-9.495-45.85c-.235-1.134-.875-1.959-1.429-1.846Z" transform="translate(-203.958 -323.326)" fill="#cacaca"/><path d="M402.113,454.2a4.308,4.308,0,0,1-1.688-6.387l-5.248-8.329,4.284-4.424,7.246,11.867a4.331,4.331,0,0,1-4.594,7.273Z" transform="translate(-289.551 -316.818)" fill="#ffb6b6"/><path d="M354.808,359.951l3.76-2.477s2.9.65,5.987,6.586,15.529,32.47,15.529,32.47l-5.115,5.193-13.645-20.817Z" transform="translate(-267.053 -277.048)" fill="#e4e4e4"/><path d="M295.59,469.512a4.308,4.308,0,0,0-1.243-6.488l1.126-9.78-5.777-2.134-1.4,13.834a4.332,4.332,0,0,0,7.289,4.568Z" transform="translate(-226.782 -324.859)" fill="#ffb6b6"/><path d="M299.355,363.331l-3.41-4.766s-2.333-.518-5.09,2.7-4.365,43.417-4.365,43.417l10.108,2.3,5.973-28.485Z" transform="translate(-226.029 -277.416)" fill="#e4e4e4"/><path d="M330.4,701.393H155.352a.459.459,0,1,1,0-.919H330.4a.459.459,0,0,1,0,.919Z" transform="translate(-154.893 -451.671)" fill="#cacaca"/><path d="M270.422,503.936l-14.95,3.174a35.5,35.5,0,0,0-3.174-14.95l14.95-3.174A19,19,0,0,0,270.422,503.936Z" transform="translate(-207.546 -343.977)" fill="#6c63ff"/><rect width="9.263" height="1.853" transform="translate(47.69 150.479) rotate(-11.987)" fill="#fff"/><rect width="9.263" height="1.853" transform="translate(48.459 154.384) rotate(-11.987)" fill="#fff"/><rect width="9.263" height="1.853" transform="translate(49.229 158.29) rotate(-11.987)" fill="#fff"/></g><text transform="translate(759 2127)" fill="#878a95" font-size="18" font-family="SegoeUI, Segoe UI"><tspan x="-42.974" y="0">HTML, CSS</tspan></text><path d="M11.382.741,8.663,6.252l-6.082.887a1.333,1.333,0,0,0-.737,2.273l4.4,4.287L5.2,19.755a1.331,1.331,0,0,0,1.931,1.4l5.441-2.86,5.441,2.86a1.332,1.332,0,0,0,1.931-1.4L18.908,13.7l4.4-4.287a1.333,1.333,0,0,0-.737-2.273l-6.082-.887L13.771.741a1.333,1.333,0,0,0-2.389,0Z" transform="translate(885.559 2112.001)" fill="#fe0"/><path d="M11.382.741,8.663,6.252l-6.082.887a1.333,1.333,0,0,0-.737,2.273l4.4,4.287L5.2,19.755a1.331,1.331,0,0,0,1.931,1.4l5.441-2.86,5.441,2.86a1.332,1.332,0,0,0,1.931-1.4L18.908,13.7l4.4-4.287a1.333,1.333,0,0,0-.737-2.273l-6.082-.887L13.771.741a1.333,1.333,0,0,0-2.389,0Z" transform="translate(976.559 2112.001)" fill="#fe0"/><path d="M11.382.741,8.663,6.252l-6.082.887a1.333,1.333,0,0,0-.737,2.273l4.4,4.287L5.2,19.755a1.331,1.331,0,0,0,1.931,1.4l5.441-2.86,5.441,2.86a1.332,1.332,0,0,0,1.931-1.4L18.908,13.7l4.4-4.287a1.333,1.333,0,0,0-.737-2.273l-6.082-.887L13.771.741a1.333,1.333,0,0,0-2.389,0Z" transform="translate(946.559 2112.001)" fill="#fe0"/><path d="M11.382.741,8.663,6.252l-6.082.887a1.333,1.333,0,0,0-.737,2.273l4.4,4.287L5.2,19.755a1.331,1.331,0,0,0,1.931,1.4l5.441-2.86,5.441,2.86a1.332,1.332,0,0,0,1.931-1.4L18.908,13.7l4.4-4.287a1.333,1.333,0,0,0-.737-2.273l-6.082-.887L13.771.741a1.333,1.333,0,0,0-2.389,0Z" transform="translate(915.559 2112.001)" fill="#fe0"/><text transform="translate(755 2165)" fill="#878a95" font-size="18" font-family="SegoeUI, Segoe UI"><tspan x="-37.991" y="0">Sass, Scss</tspan></text><g transform="translate(34 -34)"><path d="M11.382.741,8.663,6.252l-6.082.887a1.333,1.333,0,0,0-.737,2.273l4.4,4.287L5.2,19.755a1.331,1.331,0,0,0,1.931,1.4l5.441-2.86,5.441,2.86a1.332,1.332,0,0,0,1.931-1.4L18.908,13.7l4.4-4.287a1.333,1.333,0,0,0-.737-2.273l-6.082-.887L13.771.741a1.333,1.333,0,0,0-2.389,0Z" transform="translate(882.559 2183.001)" fill="#fe0"/><path d="M11.382.741,8.663,6.252l-6.082.887a1.333,1.333,0,0,0-.737,2.273l4.4,4.287L5.2,19.755a1.331,1.331,0,0,0,1.931,1.4l5.441-2.86,5.441,2.86a1.332,1.332,0,0,0,1.931-1.4L18.908,13.7l4.4-4.287a1.333,1.333,0,0,0-.737-2.273l-6.082-.887L13.771.741a1.333,1.333,0,0,0-2.389,0Z" transform="translate(913.559 2183.001)" fill="#fe0"/><path d="M11.382.741,8.663,6.252l-6.082.887a1.333,1.333,0,0,0-.737,2.273l4.4,4.287L5.2,19.755a1.331,1.331,0,0,0,1.931,1.4l5.441-2.86,5.441,2.86a1.332,1.332,0,0,0,1.931-1.4L18.908,13.7l4.4-4.287a1.333,1.333,0,0,0-.737-2.273l-6.082-.887L13.771.741a1.333,1.333,0,0,0-2.389,0Z" transform="translate(944.559 2183.001)" fill="#fe0"/><path d="M11.382.741,8.663,6.252l-6.082.887a1.333,1.333,0,0,0-.737,2.273l4.4,4.287L5.2,19.755a1.331,1.331,0,0,0,1.931,1.4l5.441-2.86,5.441,2.86a1.332,1.332,0,0,0,1.931-1.4L18.908,13.7l4.4-4.287a1.333,1.333,0,0,0-.737-2.273l-6.082-.887L13.771.741a1.333,1.333,0,0,0-2.389,0Z" transform="translate(851.559 2183.001)" fill="#fe0"/></g><text transform="translate(739 2203)" fill="#878a95" font-size="18" font-family="SegoeUI, Segoe UI"><tspan x="-21.612" y="0">React</tspan></text><text transform="translate(732 2241)" fill="#878a95" font-size="18" font-family="SegoeUI, Segoe UI"><tspan x="-15.17" y="0">Vue</tspan></text><text transform="translate(736 2279)" fill="#878a95" font-size="18" font-family="SegoeUI, Segoe UI"><tspan x="-19.006" y="0">Nuxt</tspan></text><text transform="translate(738 2317)" fill="#878a95" font-size="18" font-family="SegoeUI, Segoe UI"><tspan x="-21.208" y="0">Axios</tspan></text><path d="M11.382.741,8.663,6.252l-6.082.887a1.333,1.333,0,0,0-.737,2.273l4.4,4.287L5.2,19.755a1.331,1.331,0,0,0,1.931,1.4l5.441-2.86,5.441,2.86a1.332,1.332,0,0,0,1.931-1.4L18.908,13.7l4.4-4.287a1.333,1.333,0,0,0-.737-2.273l-6.082-.887L13.771.741a1.333,1.333,0,0,0-2.389,0Z" transform="translate(885.559 2186.001)" fill="#fe0"/><g transform="translate(34 -38.342)"><path d="M11.382.741,8.663,6.252l-6.082.887a1.333,1.333,0,0,0-.737,2.273l4.4,4.287L5.2,19.755a1.331,1.331,0,0,0,1.931,1.4l5.441-2.86,5.441,2.86a1.332,1.332,0,0,0,1.931-1.4L18.908,13.7l4.4-4.287a1.333,1.333,0,0,0-.737-2.273l-6.082-.887L13.771.741a1.333,1.333,0,0,0-2.389,0Z" transform="translate(882.559 2262.316)" fill="#fe0"/><path d="M11.382.741,8.663,6.252l-6.082.887a1.333,1.333,0,0,0-.737,2.273l4.4,4.287L5.2,19.755a1.331,1.331,0,0,0,1.931,1.4l5.441-2.86,5.441,2.86a1.332,1.332,0,0,0,1.931-1.4L18.908,13.7l4.4-4.287a1.333,1.333,0,0,0-.737-2.273l-6.082-.887L13.771.741a1.333,1.333,0,0,0-2.389,0Z" transform="translate(851.559 2261.343)" fill="#fe0"/></g><path d="M11.382.741,8.663,6.252l-6.082.887a1.333,1.333,0,0,0-.737,2.273l4.4,4.287L5.2,19.755a1.331,1.331,0,0,0,1.931,1.4l5.441-2.86,5.441,2.86a1.332,1.332,0,0,0,1.931-1.4L18.908,13.7l4.4-4.287a1.333,1.333,0,0,0-.737-2.273l-6.082-.887L13.771.741a1.333,1.333,0,0,0-2.389,0Z" transform="translate(916.559 2260.974)" fill="#fe0"/><path d="M11.382.741,8.663,6.252l-6.082.887a1.333,1.333,0,0,0-.737,2.273l4.4,4.287L5.2,19.755a1.331,1.331,0,0,0,1.931,1.4l5.441-2.86,5.441,2.86a1.332,1.332,0,0,0,1.931-1.4L18.908,13.7l4.4-4.287a1.333,1.333,0,0,0-.737-2.273l-6.082-.887L13.771.741a1.333,1.333,0,0,0-2.389,0Z" transform="translate(885.559 2260.001)" fill="#fe0"/><path d="M11.382.741,8.663,6.252l-6.082.887a1.333,1.333,0,0,0-.737,2.273l4.4,4.287L5.2,19.755a1.331,1.331,0,0,0,1.931,1.4l5.441-2.86,5.441,2.86a1.332,1.332,0,0,0,1.931-1.4L18.908,13.7l4.4-4.287a1.333,1.333,0,0,0-.737-2.273l-6.082-.887L13.771.741a1.333,1.333,0,0,0-2.389,0Z" transform="translate(916.559 2298.974)" fill="#fe0"/><path d="M11.382.741,8.663,6.252l-6.082.887a1.333,1.333,0,0,0-.737,2.273l4.4,4.287L5.2,19.755a1.331,1.331,0,0,0,1.931,1.4l5.441-2.86,5.441,2.86a1.332,1.332,0,0,0,1.931-1.4L18.908,13.7l4.4-4.287a1.333,1.333,0,0,0-.737-2.273l-6.082-.887L13.771.741a1.333,1.333,0,0,0-2.389,0Z" transform="translate(885.559 2298.001)" fill="#fe0"/><text transform="translate(755 2352)" fill="#878a95" font-size="18" font-family="SegoeUI, Segoe UI"><tspan x="-37.995" y="0">AdobeXD</tspan></text><path d="M11.382.741,8.663,6.252l-6.082.887a1.333,1.333,0,0,0-.737,2.273l4.4,4.287L5.2,19.755a1.331,1.331,0,0,0,1.931,1.4l5.441-2.86,5.441,2.86a1.332,1.332,0,0,0,1.931-1.4L18.908,13.7l4.4-4.287a1.333,1.333,0,0,0-.737-2.273l-6.082-.887L13.771.741a1.333,1.333,0,0,0-2.389,0Z" transform="translate(917.559 2372.834)" fill="#fe0"/><path d="M11.382.741,8.663,6.252l-6.082.887a1.333,1.333,0,0,0-.737,2.273l4.4,4.287L5.2,19.755a1.331,1.331,0,0,0,1.931,1.4l5.441-2.86,5.441,2.86a1.332,1.332,0,0,0,1.931-1.4L18.908,13.7l4.4-4.287a1.333,1.333,0,0,0-.737-2.273l-6.082-.887L13.771.741a1.333,1.333,0,0,0-2.389,0Z" transform="translate(885.559 2371.861)" fill="#fe0"/><path d="M11.382.741,8.663,6.252l-6.082.887a1.333,1.333,0,0,0-.737,2.273l4.4,4.287L5.2,19.755a1.331,1.331,0,0,0,1.931,1.4l5.441-2.86,5.441,2.86a1.332,1.332,0,0,0,1.931-1.4L18.908,13.7l4.4-4.287a1.333,1.333,0,0,0-.737-2.273l-6.082-.887L13.771.741a1.333,1.333,0,0,0-2.389,0Z" transform="translate(948.559 2372.834)" fill="#fe0"/><path d="M11.382.741,8.663,6.252l-6.082.887a1.333,1.333,0,0,0-.737,2.273l4.4,4.287L5.2,19.755a1.331,1.331,0,0,0,1.931,1.4l5.441-2.86,5.441,2.86a1.332,1.332,0,0,0,1.931-1.4L18.908,13.7l4.4-4.287a1.333,1.333,0,0,0-.737-2.273l-6.082-.887L13.771.741a1.333,1.333,0,0,0-2.389,0Z" transform="translate(916.559 2339.815)" fill="#fe0"/><path d="M11.382.741,8.663,6.252l-6.082.887a1.333,1.333,0,0,0-.737,2.273l4.4,4.287L5.2,19.755a1.331,1.331,0,0,0,1.931,1.4l5.441-2.86,5.441,2.86a1.332,1.332,0,0,0,1.931-1.4L18.908,13.7l4.4-4.287a1.333,1.333,0,0,0-.737-2.273l-6.082-.887L13.771.741a1.333,1.333,0,0,0-2.389,0Z" transform="translate(947.559 2339.815)" fill="#fe0"/><path d="M11.382.741,8.663,6.252l-6.082.887a1.333,1.333,0,0,0-.737,2.273l4.4,4.287L5.2,19.755a1.331,1.331,0,0,0,1.931,1.4l5.441-2.86,5.441,2.86a1.332,1.332,0,0,0,1.931-1.4L18.908,13.7l4.4-4.287a1.333,1.333,0,0,0-.737-2.273l-6.082-.887L13.771.741a1.333,1.333,0,0,0-2.389,0Z" transform="translate(978.559 2339.815)" fill="#fe0"/><path d="M11.382.741,8.663,6.252l-6.082.887a1.333,1.333,0,0,0-.737,2.273l4.4,4.287L5.2,19.755a1.331,1.331,0,0,0,1.931,1.4l5.441-2.86,5.441,2.86a1.332,1.332,0,0,0,1.931-1.4L18.908,13.7l4.4-4.287a1.333,1.333,0,0,0-.737-2.273l-6.082-.887L13.771.741a1.333,1.333,0,0,0-2.389,0Z" transform="translate(885.559 2339.815)" fill="#fe0"/><text transform="translate(726 2390)" fill="#878a95" font-size="18" font-family="SegoeUI, Segoe UI"><tspan x="-8.578" y="0">UI</tspan></text><text transform="translate(743 2419)" fill="#878a95" font-size="18" font-family="SegoeUI, Segoe UI"><tspan x="-25.796" y="0">Jquery</tspan></text><path d="M11.382.741,8.663,6.252l-6.082.887a1.333,1.333,0,0,0-.737,2.273l4.4,4.287L5.2,19.755a1.331,1.331,0,0,0,1.931,1.4l5.441-2.86,5.441,2.86a1.332,1.332,0,0,0,1.931-1.4L18.908,13.7l4.4-4.287a1.333,1.333,0,0,0-.737-2.273l-6.082-.887L13.771.741a1.333,1.333,0,0,0-2.389,0Z" transform="translate(885.559 2404.868)" fill="#fe0"/><path d="M11.382.741,8.663,6.252l-6.082.887a1.333,1.333,0,0,0-.737,2.273l4.4,4.287L5.2,19.755a1.331,1.331,0,0,0,1.931,1.4l5.441-2.86,5.441,2.86a1.332,1.332,0,0,0,1.931-1.4L18.908,13.7l4.4-4.287a1.333,1.333,0,0,0-.737-2.273l-6.082-.887L13.771.741a1.333,1.333,0,0,0-2.389,0Z" transform="translate(976.559 2404.868)" fill="#fe0"/><path d="M11.382.741,8.663,6.252l-6.082.887a1.333,1.333,0,0,0-.737,2.273l4.4,4.287L5.2,19.755a1.331,1.331,0,0,0,1.931,1.4l5.441-2.86,5.441,2.86a1.332,1.332,0,0,0,1.931-1.4L18.908,13.7l4.4-4.287a1.333,1.333,0,0,0-.737-2.273l-6.082-.887L13.771.741a1.333,1.333,0,0,0-2.389,0Z" transform="translate(946.559 2404.868)" fill="#fe0"/><path d="M11.382.741,8.663,6.252l-6.082.887a1.333,1.333,0,0,0-.737,2.273l4.4,4.287L5.2,19.755a1.331,1.331,0,0,0,1.931,1.4l5.441-2.86,5.441,2.86a1.332,1.332,0,0,0,1.931-1.4L18.908,13.7l4.4-4.287a1.333,1.333,0,0,0-.737-2.273l-6.082-.887L13.771.741a1.333,1.333,0,0,0-2.389,0Z" transform="translate(915.559 2404.868)" fill="#fe0"/><path d="M11.382.741,8.663,6.252l-6.082.887a1.333,1.333,0,0,0-.737,2.273l4.4,4.287L5.2,19.755a1.331,1.331,0,0,0,1.931,1.4l5.441-2.86,5.441,2.86a1.332,1.332,0,0,0,1.931-1.4L18.908,13.7l4.4-4.287a1.333,1.333,0,0,0-.737-2.273l-6.082-.887L13.771.741a1.333,1.333,0,0,0-2.389,0Z" transform="translate(1006.559 2404.868)" fill="#fe0"/></g></svg>